# xmcd
#
# Track frame offsets: 
#        150
#        26580
#        44677
#        77037
#        98690
#        121632
#        141732
#        160632
#        183190
#        204582
#
# Disc length: 3308 seconds
#
# Revision: 0
# Processed by: cddbd v1.5.2PL0 Copyright (c) Steve Scherf et al.
# Submitted via: ExactAudioCopyFreeDBPlugin 1.0
#
DISCID=7f0cea0a
DTITLE=ฅาราวาน - Concert for UNICEF
DYEAR=2007
DGENRE=Country
TTITLE0=คนกับควาย
TTITLE1=คืนรัง
TTITLE2=ข้างถนน
TTITLE3=เปิบข้าว
TTITLE4=กุลา
TTITLE5=คืนสู่รัง
TTITLE6=หาบครุน้ำ
TTITLE7=ยิ้มกลางสายฝน
TTITLE8=ไอปอนปองซา
TTITLE9=คาราวาน
EXTD=
EXTT0=
EXTT1=
EXTT2=
EXTT3=
EXTT4=
EXTT5=
EXTT6=
EXTT7=
EXTT8=
EXTT9=
PLAYORDER=
